<svg width="50" height="50" viewBox="0 0 50 50" fill="none" xmlns="http://www.w3.org/2000/svg">
<path d="M36.8898 18.1396L35.2377 19.7917L36.8898 21.4438C37.0887 21.636 37.2475 21.8659 37.3566 22.12C37.4658 22.3742 37.5233 22.6476 37.5257 22.9242C37.5281 23.2008 37.4754 23.4752 37.3706 23.7312C37.2659 23.9872 37.1112 24.2198 36.9156 24.4154C36.72 24.6111 36.4874 24.7658 36.2313 24.8705C35.9753 24.9753 35.701 25.028 35.4243 25.0256C35.1477 25.0232 34.8743 24.9657 34.6202 24.8565C34.366 24.7473 34.1361 24.5886 33.9439 24.3896L32.2918 22.7375L30.6398 24.3896C30.2468 24.7691 29.7206 24.9791 29.1743 24.9744C28.6281 24.9696 28.1056 24.7505 27.7193 24.3642C27.333 23.978 27.1139 23.4555 27.1092 22.9092C27.1044 22.363 27.3144 21.8367 27.6939 21.4438L29.346 19.7917L27.6939 18.1396C27.4949 17.9474 27.3362 17.7176 27.227 17.4634C27.1179 17.2092 27.0604 16.9358 27.058 16.6592C27.0556 16.3826 27.1083 16.1083 27.213 15.8522C27.3178 15.5962 27.4725 15.3636 27.6681 15.168C27.8637 14.9724 28.0963 14.8177 28.3524 14.7129C28.6084 14.6082 28.8827 14.5554 29.1593 14.5579C29.436 14.5603 29.7093 14.6177 29.9635 14.7269C30.2177 14.8361 30.4476 14.9948 30.6398 15.1938L32.2918 16.8459L33.9439 15.1938C34.1361 14.9948 34.366 14.8361 34.6202 14.7269C34.8743 14.6177 35.1477 14.5603 35.4243 14.5579C35.701 14.5554 35.9753 14.6082 36.2313 14.7129C36.4874 14.8177 36.72 14.9724 36.9156 15.168C37.1112 15.3636 37.2659 15.5962 37.3706 15.8522C37.4754 16.1083 37.5281 16.3826 37.5257 16.6592C37.5233 16.9358 37.4658 17.2092 37.3566 17.4634C37.2475 17.7176 37.0887 17.9474 36.8898 18.1396ZM16.0564 24.3896L17.7085 22.7375L19.3606 24.3896C19.7535 24.7691 20.2798 24.9791 20.826 24.9744C21.3723 24.9696 21.8948 24.7505 22.281 24.3642C22.6673 23.978 22.8864 23.4555 22.8912 22.9092C22.8959 22.363 22.6859 21.8367 22.3064 21.4438L20.6543 19.7917L22.3064 18.1396C22.5054 17.9474 22.6641 17.7176 22.7733 17.4634C22.8825 17.2092 22.94 16.9358 22.9424 16.6592C22.9448 16.3826 22.8921 16.1083 22.7873 15.8522C22.6826 15.5962 22.5279 15.3636 22.3322 15.168C22.1366 14.9724 21.904 14.8177 21.648 14.7129C21.392 14.6082 21.1176 14.5554 20.841 14.5579C20.5644 14.5603 20.291 14.6177 20.0368 14.7269C19.7827 14.8361 19.5528 14.9948 19.3606 15.1938L17.7085 16.8459L16.0564 15.1938C15.8642 14.9948 15.6344 14.8361 15.3802 14.7269C15.126 14.6177 14.8526 14.5603 14.576 14.5579C14.2994 14.5554 14.0251 14.6082 13.769 14.7129C13.513 14.8177 13.2804 14.9724 13.0848 15.168C12.8892 15.3636 12.7345 15.5962 12.6297 15.8522C12.525 16.1083 12.4722 16.3826 12.4747 16.6592C12.4771 16.9358 12.5345 17.2092 12.6437 17.4634C12.7529 17.7176 12.9116 17.9474 13.1106 18.1396L14.7627 19.7917L13.1106 21.4438C12.9116 21.636 12.7529 21.8659 12.6437 22.12C12.5345 22.3742 12.4771 22.6476 12.4747 22.9242C12.4722 23.2008 12.525 23.4752 12.6297 23.7312C12.7345 23.9872 12.8892 24.2198 13.0848 24.4154C13.2804 24.6111 13.513 24.7658 13.769 24.8705C14.0251 24.9753 14.2994 25.028 14.576 25.0256C14.8526 25.0232 15.126 24.9657 15.3802 24.8565C15.6344 24.7473 15.8642 24.5886 16.0564 24.3896ZM47.9168 25C47.9168 29.5325 46.5728 33.9632 44.0547 37.7319C41.5366 41.5005 37.9575 44.4378 33.77 46.1723C29.5825 47.9068 24.9748 48.3606 20.5294 47.4764C16.084 46.5921 12.0006 44.4095 8.79564 41.2046C5.59069 37.9996 3.40809 33.9163 2.52384 29.4709C1.6396 25.0255 2.09343 20.4177 3.82793 16.2302C5.56244 12.0427 8.49973 8.46364 12.2684 5.94553C16.037 3.42741 20.4677 2.08337 25.0002 2.08337C31.0759 2.09054 36.9006 4.50727 41.1968 8.80343C45.4929 13.0996 47.9097 18.9244 47.9168 25ZM43.7502 25C43.7502 21.2916 42.6505 17.6665 40.5902 14.5831C38.53 11.4997 35.6016 9.09644 32.1755 7.6773C28.7494 6.25816 24.9794 5.88684 21.3422 6.61032C17.7051 7.33379 14.3642 9.11955 11.7419 11.7418C9.11969 14.364 7.33392 17.705 6.61045 21.3421C5.88698 24.9792 6.25829 28.7492 7.67743 32.1754C9.09658 35.6015 11.4998 38.5298 14.5832 40.5901C17.6667 42.6504 21.2918 43.75 25.0002 43.75C29.9711 43.744 34.7367 41.7666 38.2517 38.2516C41.7667 34.7366 43.7441 29.971 43.7502 25ZM33.3335 29.1667H16.6668C16.1143 29.1667 15.5844 29.3862 15.1937 29.7769C14.803 30.1676 14.5835 30.6975 14.5835 31.25C14.5835 31.8026 14.803 32.3325 15.1937 32.7232C15.5844 33.1139 16.1143 33.3334 16.6668 33.3334H20.8335V35.4167C20.8335 36.5218 21.2725 37.5816 22.0539 38.363C22.8353 39.1444 23.8951 39.5834 25.0002 39.5834C26.1052 39.5834 27.1651 39.1444 27.9465 38.363C28.7279 37.5816 29.1668 36.5218 29.1668 35.4167V33.3334H33.3335C33.886 33.3334 34.4159 33.1139 34.8066 32.7232C35.1973 32.3325 35.4168 31.8026 35.4168 31.25C35.4168 30.6975 35.1973 30.1676 34.8066 29.7769C34.4159 29.3862 33.886 29.1667 33.3335 29.1667Z" fill="#D32F2F"/>
</svg>
