<svg width="7" height="8" viewBox="0 0 7 8" fill="none" xmlns="http://www.w3.org/2000/svg">
<path d="M0.813559 0.52252C0.721327 0.40308 0.721327 0.209374 0.813559 0.0898713C0.90579 -0.0296316 1.05537 -0.0296316 1.14765 0.0898713L3.72524 3.42785L6.30283 0.0898713C6.39506 -0.0296316 6.54464 -0.0296316 6.63697 0.0898713C6.7292 0.209311 6.7292 0.40308 6.63697 0.52252L4.05928 3.86043L6.63692 7.19847C6.72915 7.31791 6.72915 7.51162 6.63692 7.63112C6.54464 7.75062 6.39506 7.75062 6.30278 7.63112L3.72519 4.29314L1.14765 7.63112C1.05542 7.75062 0.905839 7.75062 0.813559 7.63112C0.721327 7.51168 0.721327 7.31797 0.813559 7.19847L3.39115 3.86043L0.813559 0.52252Z" fill="#D32F2F"/>
</svg>
