<svg width="51" height="51" viewBox="0 0 51 51" fill="none" xmlns="http://www.w3.org/2000/svg">
<path fill-rule="evenodd" clip-rule="evenodd" d="M27.4125 3.18746C32.5125 3.50621 37.2937 6.05621 40.8 9.56246C44.9437 14.025 47.175 19.4437 47.175 25.8187C47.175 30.9187 45.2625 35.7 42.075 39.8437C38.8875 43.6687 34.425 46.5375 29.325 47.4937C24.225 48.45 19.125 47.8125 14.6625 45.2625C10.2 42.7125 6.69373 38.8875 4.78123 34.1062C2.86873 29.325 2.54998 23.9062 4.14373 19.125C5.73748 14.025 8.60623 9.88121 13.0687 7.01246C17.2125 4.14371 22.3125 2.86871 27.4125 3.18746ZM29.0062 44.3062C33.15 43.35 36.975 41.1187 39.8437 37.6125C42.3937 34.1062 43.9875 29.9625 43.6687 25.5C43.6687 20.4 41.7562 15.3 38.25 11.7937C35.0625 8.60621 31.2375 6.69371 26.775 6.37496C22.6312 6.05621 18.1687 7.01246 14.6625 9.56246C11.1562 12.1125 8.60623 15.6187 7.33123 20.0812C6.05623 24.225 6.05623 28.6875 7.96873 32.8312C9.88123 36.975 12.75 40.1625 16.575 42.3937C20.4 44.625 24.8625 45.2625 29.0062 44.3062ZM25.1812 23.9062L32.8312 15.9375L35.0625 18.1687L27.4125 26.1375L35.0625 34.1062L32.8312 36.3375L25.1812 28.3687L17.5312 36.3375L15.3 34.1062L22.95 26.1375L15.3 18.1687L17.5312 15.9375L25.1812 23.9062Z" fill="#D32F2F"/>
</svg>
